<svg xmlns="http://www.w3.org/2000/svg" viewBox="0 0 1218.86 382.96"><defs><style>.cls-1{fill:none;stroke:#000;stroke-width:0.5px;}.cls-2{fill:#76dfd2;}.cls-3{fill:#5faca6;}.cls-4{fill:#c0f1ed;}.cls-5{fill:#75dfd3;}.cls-6{font-size:148.98px;font-family:Calibri-Bold, Calibri;font-weight:700;}.cls-7{letter-spacing:-0.01em;}.cls-8{letter-spacing:-0.01em;}.cls-9{letter-spacing:-0.01em;}.cls-10{letter-spacing:0em;}.cls-11{letter-spacing:-0.01em;}</style></defs><g id="Logo-text"><path class="cls-1" d="M109.32,117.89a.24.24,0,0,1,.08-.1c-.19.25-.37.52-.55.75-1,1.45-2,2.9-3.06,4.36h0A114.86,114.86,0,0,0,94.92,142.2,84.75,84.75,0,0,1,109.32,117.89Z"/><path class="cls-1" d="M104.26,125.13a118.33,118.33,0,0,0-12.88,26A100.84,100.84,0,0,1,104.26,125.13Z"/><path class="cls-1" d="M105.78,122.91h0c-.51.73-1,1.48-1.53,2.22Z"/><path class="cls-1" d="M104.26,125.13c1-1.6,2.13-3.17,3.25-4.71l-1.72,2.48h0Z"/><path class="cls-2" d="M308.91,252C236.16,375.48,44.18,288.09,91.38,151.09c-26.59,74.79,48,153.21,124.12,130.12a101.4,101.4,0,0,0,31.07-14.63Z"/><path class="cls-3" d="M308.24,130.53l-.26,0C261.68,46,125.52,76,121.9,173c-1.46,66,83.92,98,123.75,46-65.41,94.36-205.17-.45-139.86-96h0C150.47,51.1,269.29,56.18,308.24,130.53Z"/><path class="cls-4" d="M246.61,217.5l0,49.08C163.81,325.33,53.23,234.77,94.92,142.2,59.85,238.91,191.37,303,246.61,217.5Z"/><path class="cls-3" d="M308.91,252l-62.34,14.62v-49L247,217Z"/><path class="cls-5" d="M308.11,130.28l-.54-.08c-58.36-92.33-194.43-15.88-145.65,82.46,11.63,26.07,49.34,36.2,72,18.33-48.49,38.33-122.81-7.09-111.06-69.78C139.74,70.89,264.89,52,308.11,130.28Z"/><path class="cls-4" d="M308.11,130.28c-15-2.19-46.54-7.08-61.24-9.25A65.94,65.94,0,0,0,221,115.77c-48.76-1.2-82,54.4-59.05,96.87C113.15,114.18,249.88,38,308.11,130.28Z"/><path class="cls-3" d="M246.87,121.24l-.3,0v44.75c-31.19-49.75-108.38-10.44-85.82,44.38C135.24,157,190.1,97.24,246.87,121.24Z"/><path class="cls-5" d="M308.36,130.71c-18.68,10.58-43.24,24.53-61.79,35V121c14.72,2.24,46.6,7,61.54,9.3Z"/><text class="cls-6" transform="translate(359.57 237.25)">Co<tspan class="cls-7" x="158.94" y="0">n</tspan><tspan class="cls-8" x="237.5" y="0">t</tspan><tspan x="287.33" y="0">e</tspan><tspan class="cls-9" x="362.33" y="0">n</tspan><tspan class="cls-10" x="440.89" y="0">t</tspan><tspan class="cls-11" x="492.54" y="0">r</tspan><tspan x="543.82" y="0">e.io</tspan></text></g></svg>