<svg xmlns="http://www.w3.org/2000/svg" viewBox="0 0 500 500"><defs><style>.cls-1{fill:none;stroke:#000;stroke-width:0.5px;}.cls-2{fill:#76dfd2;}.cls-3{fill:#5faca6;}.cls-4{fill:#c0f1ed;}.cls-5{fill:#75dfd3;}</style></defs><g id="Logo-text"><path class="cls-1" d="M114.4,135.48a.32.32,0,0,1,.12-.15c-.3.38-.58.8-.86,1.16-1.63,2.25-3.18,4.51-4.76,6.79v0a178.5,178.5,0,0,0-16.91,30A132.05,132.05,0,0,1,114.4,135.48Z"/><path class="cls-1" d="M106.52,146.75a184.45,184.45,0,0,0-20,40.4A156.78,156.78,0,0,1,106.52,146.75Z"/><path class="cls-1" d="M108.89,143.3h0c-.79,1.13-1.58,2.3-2.38,3.45Q107.72,145,108.89,143.3Z"/><path class="cls-1" d="M106.52,146.75c1.62-2.49,3.32-4.93,5.06-7.33-.89,1.29-1.79,2.56-2.68,3.86,0,0,0,0,0,0Q107.72,145,106.52,146.75Z"/><path class="cls-2" d="M425,344.12c-113.22,192.22-412,56.22-338.52-157C45.1,303.52,161.18,425.58,279.64,389.64A158.19,158.19,0,0,0,328,366.88C349.69,361.77,403.85,349.08,425,344.12Z"/><path class="cls-3" d="M424,155.14l-.41-.06C351.5,23.62,139.61,70.22,134,221.17c-2.27,102.76,130.6,152.46,192.59,71.58C224.77,439.6,7.26,292,108.9,143.3v0C178.44,31.54,363.34,39.45,424,155.14Z"/><path class="cls-4" d="M328.05,290.49,328,366.88C199.19,458.3,27.12,317.36,92,173.31,37.41,323.8,242.08,423.55,328.05,290.49Z"/><path class="cls-3" d="M425,344.12c-21.16,5-75.23,17.64-97,22.76v-76.3l.63-.86C359.09,306.93,394.66,327,425,344.12Z"/><path class="cls-5" d="M423.76,154.76l-.85-.12C332.1,11,120.35,129.93,196.25,283c18.11,40.56,76.79,56.33,112,28.51-75.47,59.65-191.11-11-172.83-108.59C161.74,62.33,356.49,33,423.76,154.76Z"/><path class="cls-4" d="M423.76,154.76c-23.31-3.41-72.43-11-95.31-14.39a102.41,102.41,0,0,0-40.32-8.19c-75.87-1.87-127.61,84.66-91.89,150.75C120.35,129.7,333.14,11.21,423.76,154.76Z"/><path class="cls-3" d="M328.45,140.69l-.46-.07v69.64C279.45,132.83,159.32,194,194.43,279.32,154.74,196.38,240.11,103.34,328.45,140.69Z"/><path class="cls-5" d="M424.14,155.43C395.08,171.89,356.85,193.6,328,210V140.29c22.9,3.48,72.51,11,95.77,14.47Z"/></g></svg>