<svg width="20" height="20" viewBox="0 0 20 20" fill="none" xmlns="http://www.w3.org/2000/svg">
<path fill-rule="evenodd" clip-rule="evenodd" d="M0.875 10.2641C0.875 5.32543 4.82188 0.875 10.2688 0.875C15.5938 0.875 19.625 5.24092 19.625 10.2359C19.625 16.029 14.9 19.625 10.25 19.625C8.7125 19.625 7.00625 19.2119 5.6375 18.4044C5.15937 18.1134 4.75625 17.8974 4.24062 18.0664L2.34688 18.6298C1.86875 18.78 1.4375 18.4044 1.57812 17.8974L2.20625 15.7943C2.30937 15.5032 2.29062 15.1934 2.14062 14.9492C1.33438 13.4658 0.875 11.8414 0.875 10.2641ZM9.03125 10.2641C9.03125 10.9307 9.56563 11.4659 10.2312 11.4753C10.8969 11.4753 11.4312 10.9307 11.4312 10.2735C11.4312 9.60685 10.8969 9.07167 10.2312 9.07167C9.575 9.06228 9.03125 9.60685 9.03125 10.2641ZM13.3531 10.2735C13.3531 10.9307 13.8875 11.4753 14.5531 11.4753C15.2188 11.4753 15.7531 10.9307 15.7531 10.2735C15.7531 9.60685 15.2188 9.07167 14.5531 9.07167C13.8875 9.07167 13.3531 9.60685 13.3531 10.2735ZM5.90938 11.4753C5.25312 11.4753 4.70937 10.9307 4.70937 10.2735C4.70937 9.60685 5.24375 9.07167 5.90938 9.07167C6.575 9.07167 7.10938 9.60685 7.10938 10.2735C7.10938 10.9307 6.575 11.4659 5.90938 11.4753Z" fill="white"/>
</svg>
