<svg width="14" height="9" viewBox="0 0 14 9" fill="none" xmlns="http://www.w3.org/2000/svg">
<path d="M13 4.33334C12.8231 4.33334 12.6536 4.40358 12.5286 4.52861C12.4035 4.65363 12.3333 4.8232 12.3333 5.00001V6.72668L8.13996 2.52668C8.07798 2.46419 8.00425 2.4146 7.92301 2.38075C7.84177 2.3469 7.75463 2.32948 7.66663 2.32948C7.57862 2.32948 7.49148 2.3469 7.41024 2.38075C7.329 2.4146 7.25527 2.46419 7.19329 2.52668L4.99996 4.72668L1.47329 1.19335C1.34776 1.06781 1.1775 0.997284 0.999961 0.997284C0.822426 0.997284 0.652163 1.06781 0.526627 1.19335C0.401092 1.31888 0.330566 1.48914 0.330566 1.66668C0.330566 1.84421 0.401092 2.01448 0.526627 2.14001L4.52663 6.14001C4.5886 6.2025 4.66234 6.25209 4.74358 6.28594C4.82482 6.31978 4.91195 6.33721 4.99996 6.33721C5.08797 6.33721 5.17511 6.31978 5.25635 6.28594C5.33758 6.25209 5.41132 6.2025 5.47329 6.14001L7.66663 3.94001L11.3933 7.66668H9.66663C9.48982 7.66668 9.32025 7.73691 9.19522 7.86194C9.0702 7.98696 8.99996 8.15653 8.99996 8.33334C8.99996 8.51015 9.0702 8.67972 9.19522 8.80475C9.32025 8.92977 9.48982 9.00001 9.66663 9.00001H13C13.0871 8.99896 13.1731 8.98084 13.2533 8.94668C13.4162 8.87903 13.5456 8.74958 13.6133 8.58668C13.6475 8.50653 13.6656 8.42046 13.6666 8.33334V5.00001C13.6666 4.8232 13.5964 4.65363 13.4714 4.52861C13.3463 4.40358 13.1768 4.33334 13 4.33334Z" fill="#FD4E4E"/>
</svg>
