<svg width="20" height="19" viewBox="0 0 20 19" fill="none" xmlns="http://www.w3.org/2000/svg">
    <path fill-rule="evenodd" clip-rule="evenodd"
        d="M13.8591 0.344418C14.4507 0.344418 15.0413 0.427856 15.6029 0.616293C19.0632 1.74129 20.3101 5.53817 19.2685 8.85692C18.6779 10.5529 17.7123 12.1007 16.4476 13.3654C14.6373 15.1185 12.6507 16.6747 10.5123 18.0154L10.2779 18.1569L10.0341 18.006C7.88821 16.6747 5.8904 15.1185 4.06321 13.356C2.80696 12.0913 1.8404 10.5529 1.2404 8.85692C0.181021 5.53817 1.4279 1.74129 4.92571 0.596606C5.19758 0.502856 5.4779 0.437231 5.75915 0.400668H5.87165C6.13508 0.362231 6.39665 0.344418 6.65915 0.344418H6.76227C7.3529 0.362231 7.92477 0.465356 8.47883 0.653793H8.53415C8.57165 0.671606 8.59977 0.691293 8.61852 0.709106C8.82571 0.775668 9.02165 0.850668 9.20915 0.953793L9.5654 1.11317C9.65148 1.15908 9.7481 1.22923 9.83161 1.28986C9.88452 1.32827 9.93216 1.36286 9.96852 1.38504C9.98382 1.39407 9.99937 1.40315 10.015 1.4123C10.0954 1.45922 10.1792 1.5081 10.2498 1.56223C11.2913 0.766293 12.556 0.335043 13.8591 0.344418ZM16.3529 7.09442C16.7373 7.08411 17.0654 6.77567 17.0935 6.38098V6.26942C17.1216 4.95598 16.3257 3.76629 15.1154 3.30692C14.731 3.17473 14.3091 3.38192 14.1685 3.77567C14.0373 4.16942 14.2435 4.60067 14.6373 4.74036C15.2382 4.96536 15.6404 5.55692 15.6404 6.21223V6.24129C15.6226 6.45598 15.6873 6.66317 15.8185 6.82254C15.9498 6.98192 16.1466 7.07473 16.3529 7.09442Z"
        fill="white" />
</svg>