<svg width="20" height="16" viewBox="0 0 20 16" fill="currentColor" xmlns="http://www.w3.org/2000/svg">
    <path fill-rule="evenodd" clip-rule="evenodd"
        d="M6.59146 8.25C6.59146 10.25 8.22866 11.8773 10.25 11.8773C12.2622 11.8773 13.8994 10.25 13.8994 8.25C13.8994 6.24091 12.2622 4.61364 10.25 4.61364C8.22866 4.61364 6.59146 6.24091 6.59146 8.25ZM15.628 2.66818C17.2287 3.90455 18.5915 5.71364 19.5701 7.97727C19.6433 8.15 19.6433 8.35 19.5701 8.51364C17.6128 13.0409 14.128 15.75 10.25 15.75H10.2409C6.37195 15.75 2.8872 13.0409 0.929878 8.51364C0.856707 8.35 0.856707 8.15 0.929878 7.97727C2.8872 3.45 6.37195 0.75 10.2409 0.75H10.25C12.189 0.75 14.0274 1.42273 15.628 2.66818ZM10.2511 10.5116C11.5041 10.5116 12.5285 9.49345 12.5285 8.248C12.5285 6.99345 11.5041 5.97527 10.2511 5.97527C10.1413 5.97527 10.0316 5.98436 9.93097 6.00255C9.89439 7.00255 9.07122 7.80255 8.05598 7.80255H8.01024C7.9828 7.948 7.96451 8.09345 7.96451 8.248C7.96451 9.49345 8.9889 10.5116 10.2511 10.5116Z" />
</svg>