<svg width="23" height="23" viewBox="0 0 23 23" fill="none" xmlns="http://www.w3.org/2000/svg">
<path d="M20.99 1.68233C20.982 1.64347 20.963 1.60769 20.9354 1.57921C20.9078 1.55072 20.8726 1.5307 20.834 1.52149C18.2601 0.892198 12.313 3.13473 9.09094 6.35548C8.51625 6.92551 7.99235 7.54456 7.52516 8.20557C6.53156 8.11768 5.53796 8.19107 4.69113 8.56021C2.30183 9.61182 1.60617 12.3558 1.41237 13.5361C1.40138 13.6007 1.40553 13.667 1.42449 13.7298C1.44345 13.7925 1.4767 13.85 1.52164 13.8977C1.56657 13.9454 1.62196 13.982 1.68345 14.0047C1.74494 14.0273 1.81085 14.0354 1.876 14.0283L5.71286 13.6051C5.7156 13.8944 5.73305 14.1834 5.76516 14.4709C5.78446 14.6705 5.87309 14.8571 6.01564 14.9982L7.50143 16.4805C7.64267 16.6228 7.82919 16.7114 8.02878 16.731C8.31467 16.7629 8.602 16.7804 8.88967 16.7833L8.46867 20.6153C8.46165 20.6804 8.46981 20.7463 8.49251 20.8077C8.51521 20.8692 8.55184 20.9245 8.59953 20.9694C8.64721 21.0143 8.70465 21.0476 8.76734 21.0666C8.83003 21.0856 8.89627 21.0898 8.96086 21.0789C10.139 20.8899 12.8878 20.1943 13.9333 17.805C14.3024 16.9582 14.378 15.9694 14.2927 14.9806C14.9554 14.5134 15.576 13.9894 16.1477 13.4144C19.3798 10.1985 21.6096 4.38409 20.99 1.68233ZM12.923 9.57798C12.6278 9.28304 12.4268 8.90719 12.3453 8.49797C12.2638 8.08875 12.3055 7.66456 12.4651 7.27904C12.6247 6.89352 12.8951 6.564 13.242 6.33216C13.5889 6.10032 13.9968 5.97657 14.414 5.97657C14.8313 5.97657 15.2392 6.10032 15.5861 6.33216C15.933 6.564 16.2034 6.89352 16.363 7.27904C16.5226 7.66456 16.5643 8.08875 16.4828 8.49797C16.4013 8.90719 16.2002 9.28304 15.9051 9.57798C15.7094 9.77397 15.477 9.92946 15.2211 10.0355C14.9653 10.1416 14.691 10.1962 14.414 10.1962C14.1371 10.1962 13.8628 10.1416 13.607 10.0355C13.3511 9.92946 13.1187 9.77397 12.923 9.57798Z" fill="white"/>
<path d="M7.40039 17.5541C7.15957 17.7954 6.77329 17.8894 6.30835 17.9699C5.26377 18.1478 4.34136 17.2452 4.529 16.1892C4.60063 15.7889 4.81245 15.2277 4.94429 15.0958C4.9731 15.0676 4.99228 15.031 4.9991 14.9912C5.00592 14.9514 5.00004 14.9105 4.98228 14.8742C4.96452 14.838 4.9358 14.8083 4.90018 14.7893C4.86457 14.7703 4.82388 14.763 4.78389 14.7685C4.19975 14.8399 3.65631 15.1048 3.24009 15.5208C2.20693 16.5548 2.10938 20.3917 2.10938 20.3917C2.10938 20.3917 5.94844 20.2941 6.98159 19.2601C7.39892 18.8442 7.66409 18.2999 7.73437 17.715C7.75063 17.5313 7.52695 17.4219 7.40039 17.5541Z" fill="white"/>
</svg>
