<svg width="30" height="20" viewBox="0 0 30 20" fill="none" xmlns="http://www.w3.org/2000/svg">
<path d="M20.333 5.33342C19.41 5.33342 18.5078 5.60711 17.7403 6.11989C16.9729 6.63267 16.3748 7.3615 16.0216 8.21423C15.6684 9.06695 15.5759 10.0053 15.756 10.9105C15.9361 11.8157 16.3805 12.6473 17.0332 13.2999C17.6858 13.9526 18.5173 14.397 19.4226 14.5771C20.3278 14.7571 21.2661 14.6647 22.1189 14.3115C22.9716 13.9583 23.7004 13.3602 24.2132 12.5927C24.726 11.8253 24.9997 10.9231 24.9997 10.0001C24.9997 8.7624 24.508 7.57542 23.6328 6.70025C22.7577 5.82508 21.5707 5.33342 20.333 5.33342ZM20.333 12.0001C19.9374 12.0001 19.5508 11.8828 19.2219 11.663C18.893 11.4433 18.6366 11.1309 18.4852 10.7654C18.3339 10.4 18.2943 9.99786 18.3714 9.6099C18.4486 9.22194 18.6391 8.86557 18.9188 8.58587C19.1985 8.30616 19.5549 8.11568 19.9428 8.03851C20.3308 7.96134 20.7329 8.00095 21.0984 8.15232C21.4638 8.3037 21.7762 8.56004 21.9959 8.88894C22.2157 9.21784 22.333 9.60452 22.333 10.0001C22.333 10.5305 22.1223 11.0392 21.7472 11.4143C21.3721 11.7894 20.8634 12.0001 20.333 12.0001ZM20.333 0.666748H9.66634C7.19099 0.666748 4.81702 1.65008 3.06668 3.40042C1.31634 5.15076 0.333008 7.52473 0.333008 10.0001C0.333008 12.4754 1.31634 14.8494 3.06668 16.5997C4.81702 18.3501 7.19099 19.3334 9.66634 19.3334H20.333C22.8084 19.3334 25.1823 18.3501 26.9327 16.5997C28.683 14.8494 29.6663 12.4754 29.6663 10.0001C29.6663 7.52473 28.683 5.15076 26.9327 3.40042C25.1823 1.65008 22.8084 0.666748 20.333 0.666748ZM20.333 16.6667H9.66634C7.89823 16.6667 6.20254 15.9644 4.9523 14.7141C3.70205 13.4639 2.99967 11.7682 2.99967 10.0001C2.99967 8.23197 3.70205 6.53628 4.9523 5.28604C6.20254 4.03579 7.89823 3.33341 9.66634 3.33341H20.333C22.1011 3.33341 23.7968 4.03579 25.0471 5.28604C26.2973 6.53628 26.9997 8.23197 26.9997 10.0001C26.9997 11.7682 26.2973 13.4639 25.0471 14.7141C23.7968 15.9644 22.1011 16.6667 20.333 16.6667Z" fill="#286963"/>
</svg>
