<svg width="30" height="20" viewBox="0 0 30 20" fill="none" xmlns="http://www.w3.org/2000/svg">
<path d="M9.66634 5.33317C8.74336 5.33317 7.84111 5.60687 7.07368 6.11965C6.30625 6.63243 5.70811 7.36126 5.3549 8.21398C5.00169 9.0667 4.90928 10.005 5.08934 10.9103C5.26941 11.8155 5.71386 12.647 6.36651 13.2997C7.01915 13.9523 7.85067 14.3968 8.75592 14.5768C9.66116 14.7569 10.5995 14.6645 11.4522 14.3113C12.3049 13.9581 13.0338 13.3599 13.5465 12.5925C14.0593 11.8251 14.333 10.9228 14.333 9.99984C14.333 8.76216 13.8413 7.57518 12.9662 6.70001C12.091 5.82484 10.904 5.33317 9.66634 5.33317ZM9.66634 11.9998C9.27078 11.9998 8.8841 11.8825 8.5552 11.6628C8.2263 11.443 7.96996 11.1307 7.81858 10.7652C7.66721 10.3998 7.6276 9.99762 7.70477 9.60966C7.78194 9.22169 7.97242 8.86533 8.25213 8.58562C8.53183 8.30592 8.8882 8.11544 9.27616 8.03827C9.66412 7.9611 10.0663 8.0007 10.4317 8.15208C10.7972 8.30345 11.1095 8.5598 11.3293 8.8887C11.549 9.2176 11.6663 9.60427 11.6663 9.99984C11.6663 10.5303 11.4556 11.039 11.0806 11.4141C10.7055 11.7891 10.1968 11.9998 9.66634 11.9998ZM20.333 0.666504H9.66634C7.19099 0.666504 4.81702 1.64983 3.06668 3.40017C1.31634 5.15051 0.333008 7.52448 0.333008 9.99984C0.333008 12.4752 1.31634 14.8492 3.06668 16.5995C4.81702 18.3498 7.19099 19.3332 9.66634 19.3332H20.333C22.8084 19.3332 25.1823 18.3498 26.9327 16.5995C28.683 14.8492 29.6663 12.4752 29.6663 9.99984C29.6663 7.52448 28.683 5.15051 26.9327 3.40017C25.1823 1.64983 22.8084 0.666504 20.333 0.666504ZM20.333 16.6665H9.66634C7.89823 16.6665 6.20254 15.9641 4.9523 14.7139C3.70205 13.4636 2.99967 11.7679 2.99967 9.99984C2.99967 8.23173 3.70205 6.53603 4.9523 5.28579C6.20254 4.03555 7.89823 3.33317 9.66634 3.33317H20.333C22.1011 3.33317 23.7968 4.03555 25.0471 5.28579C26.2973 6.53603 26.9997 8.23173 26.9997 9.99984C26.9997 11.7679 26.2973 13.4636 25.0471 14.7139C23.7968 15.9641 22.1011 16.6665 20.333 16.6665Z" fill="#BDBDBD"/>
</svg>
